<svg width="24" height="24" viewBox="0 0 24 24" fill="none" xmlns="http://www.w3.org/2000/svg">
<path fill-rule="evenodd" clip-rule="evenodd" d="M0 0H3.6233L4.4858 2.93333H20.125C22.2839 2.93333 24 4.71338 24 6.86667V16.6667H6.4392L2.1267 2H0V0ZM5.07387 4.93333L7.9358 14.6667H22V6.86667C22 5.77988 21.1417 4.93333 20.125 4.93333H5.07387ZM10.0625 21.0667C9.83972 21.0667 9.625 21.2566 9.625 21.5333C9.625 21.8101 9.83972 22 10.0625 22C10.2853 22 10.5 21.8101 10.5 21.5333C10.5 21.2566 10.2853 21.0667 10.0625 21.0667ZM7.625 21.5333C7.625 20.1901 8.69746 19.0667 10.0625 19.0667C11.4275 19.0667 12.5 20.1901 12.5 21.5333C12.5 22.8766 11.4275 24 10.0625 24C8.69746 24 7.625 22.8766 7.625 21.5333ZM17.6875 21.5333C17.6875 20.1901 18.76 19.0667 20.125 19.0667C21.49 19.0667 22.5625 20.1901 22.5625 21.5333C22.5625 22.8766 21.49 24 20.125 24C18.76 24 17.6875 22.8766 17.6875 21.5333ZM20.125 21.0667C19.9022 21.0667 19.6875 21.2566 19.6875 21.5333C19.6875 21.8101 19.9022 22 20.125 22C20.3478 22 20.5625 21.8101 20.5625 21.5333C20.5625 21.2566 20.3478 21.0667 20.125 21.0667Z" fill="#828282"/>
</svg>
