<svg width="16" height="23" viewBox="0 0 16 23" fill="none" xmlns="http://www.w3.org/2000/svg">
<path fill-rule="evenodd" clip-rule="evenodd" d="M0.292894 0.292893C0.48043 0.105356 0.734784 -3.57627e-07 1 0L15 1.58548e-05C15.5523 1.65105e-05 16 0.447732 16 1.00002V22C16 22.3905 15.7727 22.7453 15.4179 22.9085C15.0631 23.0717 14.6457 23.0134 14.3492 22.7593L8 17.3171L1.65079 22.7593C1.35428 23.0134 0.936944 23.0717 0.582143 22.9085C0.227342 22.7453 0 22.3905 0 22V1C0 0.734783 0.105357 0.480429 0.292894 0.292893ZM2 2V19.8258L7.34921 15.2407C7.7237 14.9198 8.2763 14.9198 8.65079 15.2407L14 19.8258V2.00001L2 2Z" fill="#828282"/>
</svg>
