<svg width="24" height="24" viewBox="0 0 24 24" fill="none" xmlns="http://www.w3.org/2000/svg">
<path fill-rule="evenodd" clip-rule="evenodd" d="M12 21.8118C17.5228 21.8118 22 17.3729 22 11.8973C22 6.42174 17.5228 1.98289 12 1.98289C6.47715 1.98289 2 6.42174 2 11.8973C2 17.3729 6.47715 21.8118 12 21.8118ZM12 23.7947C18.6274 23.7947 24 18.468 24 11.8973C24 5.32662 18.6274 0 12 0C5.37258 0 0 5.32662 0 11.8973C0 18.468 5.37258 23.7947 12 23.7947Z" fill="#E30613"/>
<path fill-rule="evenodd" clip-rule="evenodd" d="M0.292908 22.5979L3.79291 19.1278L5.20712 20.5299L1.70712 24L0.292908 22.5979Z" fill="#E30613"/>
</svg>
