<svg width="21" height="26" viewBox="0 0 21 26" fill="none" xmlns="http://www.w3.org/2000/svg">
<path fill-rule="evenodd" clip-rule="evenodd" d="M10.5 2C8.25915 2 6.4 3.86998 6.4 6.23103C6.4 8.59208 8.25915 10.4621 10.5 10.4621C12.7409 10.4621 14.6 8.59208 14.6 6.23103C14.6 3.86998 12.7409 2 10.5 2ZM4.4 6.23103C4.4 2.81354 7.10705 0 10.5 0C13.8929 0 16.6 2.81354 16.6 6.23103C16.6 9.64852 13.8929 12.4621 10.5 12.4621C7.10705 12.4621 4.4 9.64852 4.4 6.23103ZM6.1 17.2816C3.85978 17.2816 2 19.1521 2 21.5152V24H19V21.5152C19 19.1521 17.1402 17.2816 14.9 17.2816H6.1ZM0 21.5152C0 18.0964 2.70691 15.2816 6.1 15.2816H14.9C18.2931 15.2816 21 18.0964 21 21.5152V26H0V21.5152Z" fill="#828282"/>
</svg>
